<?xml version="1.0" standalone="no"?>
<!DOCTYPE svg PUBLIC "-//W3C//DTD SVG 20010904//EN"
 "http://www.w3.org/TR/2001/REC-SVG-20010904/DTD/svg10.dtd">
<svg version="1.0" xmlns="http://www.w3.org/2000/svg"
 width="612.000000pt" height="408.000000pt" viewBox="0 0 612.000000 408.000000"
 preserveAspectRatio="xMidYMid meet">

<g transform="translate(0.000000,408.000000) scale(0.100000,-0.100000)"
fill="#000000" stroke="none">
<path d="M2101 3064 c-22 -27 -27 -44 -13 -44 10 1 53 70 42 70 -5 0 -18 -12
-29 -26z"/>
<path d="M1734 3059 c-4 -7 8 -10 37 -8 101 6 167 -1 173 -17 13 -34 -12 -43
-127 -47 l-112 -3 118 -2 117 -2 12 26 c11 23 10 29 -11 45 -19 15 -40 19
-112 19 -53 0 -91 -4 -95 -11z"/>
<path d="M2033 2883 c15 -2 37 -2 50 0 12 2 0 4 -28 4 -27 0 -38 -2 -22 -4z"/>
<path d="M2043 2858 c28 -7 42 -7 50 1 8 8 -2 11 -38 10 l-50 -1 38 -10z"/>
<path d="M4090 2720 c0 -7 178 -10 514 -10 333 0 517 4 521 10 4 7 -170 10
-514 10 -341 0 -521 -3 -521 -10z"/>
<path d="M2320 2483 c41 -2 81 -9 90 -16 13 -11 13 -10 1 6 -11 14 -27 17 -90
15 l-76 -2 75 -3z"/>
<path d="M2462 2348 c7 -20 58 -23 58 -4 0 11 -10 16 -31 16 -20 0 -29 -4 -27
-12z"/>
<path d="M4507 2338 c-20 -16 -37 -60 -37 -97 0 -15 -5 -32 -12 -39 -9 -9 -9
-15 0 -24 20 -20 14 -85 -10 -123 -13 -19 -27 -35 -32 -35 -17 0 -86 78 -86
98 0 12 10 28 22 36 26 19 18 32 -10 17 -49 -26 -39 -85 21 -136 l43 -36 -18
-55 c-20 -60 -16 -99 12 -114 27 -14 75 -12 116 5 19 8 41 12 49 9 9 -4 15 0
15 7 0 8 15 25 33 40 27 21 40 24 80 21 l48 -4 -6 -42 c-10 -62 -35 -92 -76
-89 -32 3 -33 2 -15 -12 23 -18 31 -18 57 -5 24 14 49 61 49 97 0 40 10 49 59
56 51 6 95 35 99 65 5 31 -22 76 -62 103 -20 13 -36 30 -36 37 0 7 -5 10 -11
6 -22 -13 -90 28 -105 64 -8 19 -14 39 -14 44 0 13 65 38 101 38 25 0 33 -5
42 -30 6 -16 15 -30 19 -30 15 0 8 27 -13 54 -25 32 -65 34 -126 6 -24 -10
-43 -15 -43 -11 0 5 -18 27 -40 50 -42 43 -80 53 -113 29z m99 -42 c19 -19 34
-40 34 -47 0 -8 -16 -24 -36 -37 -29 -19 -43 -22 -80 -16 -48 7 -45 0 -28 81
13 64 58 71 110 19z m64 -95 c17 -34 12 -39 -30 -27 l-41 10 23 18 c29 22 35
22 48 -1z m-126 -29 c3 -5 -7 -21 -23 -36 l-29 -27 -4 30 c-3 17 -2 33 0 36 9
8 50 6 56 -3z m113 -23 c39 -11 42 -14 56 -70 l14 -57 -42 -42 -43 -42 -49 11
c-68 17 -72 20 -85 85 l-13 58 43 40 c27 24 49 37 60 34 9 -2 36 -10 59 -17z
m113 -69 c-16 -30 -28 -32 -35 -8 -19 65 -20 61 14 43 26 -13 30 -19 21 -35z
m105 -53 c34 -48 3 -87 -75 -95 l-50 -5 0 47 c0 36 7 56 26 82 l26 34 29 -21
c16 -11 35 -30 44 -42z m-386 -4 c6 -20 9 -39 7 -41 -4 -3 -43 14 -54 23 -4 4
28 55 34 55 2 0 8 -17 13 -37z m40 -111 l21 -43 -36 -15 c-20 -8 -52 -14 -72
-12 -51 4 -62 37 -34 101 l21 46 39 -17 c30 -13 46 -28 61 -60z m210 31 c1 -8
-13 -13 -36 -13 l-37 0 29 30 c26 27 30 29 37 13 3 -10 7 -24 7 -30z m-129
-20 c3 -3 -6 -14 -19 -24 l-25 -20 -12 23 c-8 13 -13 27 -14 31 0 8 60 -1 70
-10z"/>
<path d="M3190 2153 c-14 -10 -33 -27 -42 -38 -16 -19 -16 -21 7 -44 l23 -24
41 43 c40 42 42 43 91 37 27 -3 50 -4 50 -1 0 2 -15 13 -32 24 -41 25 -105 26
-138 3z"/>
<path d="M3096 2031 c-23 -36 -56 -216 -56 -302 l0 -39 -55 0 -55 0 0 114 c0
63 -4 117 -9 120 -16 10 -50 -83 -75 -205 -3 -15 -14 -29 -26 -32 -26 -7 -26
-37 0 -44 27 -7 34 -68 26 -212 -6 -95 -4 -123 9 -147 12 -23 15 -69 15 -231
l0 -202 -87 1 c-166 3 -253 -2 -253 -12 0 -8 359 -9 1168 -6 1236 6 1276 6
1252 14 -8 2 -36 25 -61 49 l-47 45 6 -47 c3 -35 2 -46 -7 -41 -6 4 -11 22
-11 40 0 49 -9 50 -47 1 -36 -48 -70 -58 -94 -29 -11 14 -13 14 -21 0 -7 -12
-34 -15 -148 -15 l-140 -1 0 260 0 260 -52 0 c-29 0 -59 4 -66 9 -10 6 -12 37
-10 127 l3 119 -175 0 -175 0 0 -57 c0 -36 5 -62 14 -70 12 -11 13 -10 7 7 -5
17 -3 17 14 -4 21 -24 35 -21 67 17 7 8 17 11 25 6 20 -13 58 -16 58 -4 0 5 5
10 11 10 5 0 8 -4 5 -9 -3 -5 6 -8 20 -8 17 0 28 7 34 21 7 19 9 19 15 4 4
-10 11 -15 16 -12 5 3 9 -2 9 -11 0 -12 -5 -15 -22 -9 -20 6 -21 5 -9 -10 24
-29 37 -18 40 34 l2 50 -86 0 c-47 0 -84 -3 -82 -7 2 -8 -6 -13 -24 -13 -5 0
-8 4 -4 9 3 6 -17 12 -47 14 -29 2 16 4 100 5 l152 2 0 -105 0 -104 -117 -3
-118 -3 -3 -77 c-4 -103 -22 -101 -22 2 0 47 -4 80 -10 80 -5 0 -10 20 -10 45
0 36 -4 47 -25 61 -22 15 -25 23 -25 80 0 61 -1 64 -25 65 -14 1 -29 3 -35 4
-5 1 -25 3 -44 4 -28 1 -35 5 -38 24 l-3 22 -314 3 -313 2 6 83 c4 45 14 113
23 150 8 38 13 69 11 70 -1 1 -15 12 -29 25 -17 15 -29 20 -33 13z m-56 -561
c0 -128 0 -130 23 -130 12 0 29 -5 37 -10 12 -8 16 -2 20 33 l5 42 58 3 c76 4
74 22 -3 22 l-60 0 0 49 c0 56 15 68 75 57 19 -4 36 -2 40 4 4 6 -15 10 -54
10 -58 0 -61 1 -61 25 l0 25 295 0 295 0 0 -244 c0 -162 4 -247 11 -251 5 -4
62 -4 125 0 l114 7 0 39 c0 22 5 39 10 39 6 0 10 -18 10 -40 l0 -39 123 -3
122 -3 0 -125 0 -125 -32 -3 c-31 -3 -33 -1 -33 27 0 24 -4 31 -20 31 -16 0
-20 -7 -20 -30 l0 -30 -300 0 -300 0 0 30 c0 23 -4 30 -20 30 -15 0 -20 -7
-20 -29 l0 -29 -275 1 c-229 1 -275 4 -275 16 0 7 8 20 18 27 16 13 16 13 0
14 -15 0 -18 9 -18 55 0 42 3 55 15 55 8 0 15 5 15 10 0 6 -7 10 -15 10 -12 0
-15 13 -15 55 0 42 3 55 15 55 8 0 15 5 15 10 0 6 -7 10 -15 10 -12 0 -15 13
-15 55 0 48 2 55 20 55 11 0 20 5 20 10 0 6 -9 10 -20 10 -18 0 -20 7 -20 55
l0 55 46 0 c27 0 43 4 39 10 -3 6 -24 10 -46 10 l-39 0 0 55 0 56 40 -3 c22
-1 43 1 46 5 4 4 -14 7 -39 7 -43 0 -47 2 -47 25 0 24 3 25 55 25 l55 0 0
-130z m1110 60 c0 -5 -5 -10 -11 -10 -5 0 -7 5 -4 10 3 6 8 10 11 10 2 0 4 -4
4 -10z m-253 -132 c-2 -13 -4 -3 -4 22 0 25 2 35 4 23 2 -13 2 -33 0 -45z"/>
<path d="M3320 1540 c33 -11 100 -11 125 0 13 6 -9 8 -65 8 -57 0 -77 -3 -60
-8z"/>
<path d="M3590 1540 c41 -3 82 -3 90 2 8 4 -25 7 -75 6 l-90 -1 75 -7z"/>
<path d="M3305 1420 c-4 -6 23 -10 74 -10 47 0 81 4 81 10 0 6 -31 10 -74 10
-41 0 -78 -4 -81 -10z"/>
<path d="M3525 1420 c-4 -6 25 -10 80 -10 55 0 84 4 80 10 -3 6 -39 10 -80 10
-41 0 -77 -4 -80 -10z"/>
<path d="M3150 1290 c0 -5 20 -10 45 -10 25 0 45 5 45 10 0 6 -20 10 -45 10
-25 0 -45 -4 -45 -10z"/>
<path d="M3305 1290 c-4 -6 23 -10 74 -10 47 0 81 4 81 10 0 6 -31 10 -74 10
-41 0 -78 -4 -81 -10z"/>
<path d="M3525 1290 c-4 -6 23 -10 74 -10 47 0 81 4 81 10 0 6 -31 10 -74 10
-41 0 -78 -4 -81 -10z"/>
<path d="M3165 1160 c-4 -6 10 -10 34 -10 23 0 41 5 41 10 0 6 -15 10 -34 10
-19 0 -38 -4 -41 -10z"/>
<path d="M3300 1160 c0 -6 33 -10 80 -10 47 0 80 4 80 10 0 6 -33 10 -80 10
-47 0 -80 -4 -80 -10z"/>
<path d="M3525 1160 c-4 -6 23 -10 74 -10 47 0 81 4 81 10 0 6 -31 10 -74 10
-41 0 -78 -4 -81 -10z"/>
<path d="M3165 1030 c3 -5 22 -10 41 -10 19 0 34 5 34 10 0 6 -18 10 -41 10
-24 0 -38 -4 -34 -10z"/>
<path d="M3305 1030 c3 -5 37 -10 76 -10 39 0 69 4 69 10 0 6 -32 10 -76 10
-47 0 -73 -4 -69 -10z"/>
<path d="M3165 900 c3 -5 22 -10 41 -10 19 0 34 5 34 10 0 6 -18 10 -41 10
-24 0 -38 -4 -34 -10z"/>
<path d="M3305 900 c3 -5 37 -10 76 -10 39 0 69 4 69 10 0 6 -32 10 -76 10
-47 0 -73 -4 -69 -10z"/>
<path d="M1041 1654 l-54 -55 105 3 c62 2 104 -1 101 -6 -4 -5 0 -6 6 -1 7 4
59 7 115 6 l101 -2 54 55 54 55 -214 0 -214 0 -54 -55z m234 2 c-40 -40 -49
-46 -52 -31 -2 6 3 10 10 10 6 1 11 7 9 14 -1 7 2 10 7 7 12 -8 33 18 23 29
-4 5 -2 5 5 1 6 -3 15 -1 18 5 4 5 9 8 12 6 2 -3 -12 -21 -32 -41z"/>
<path d="M1860 1655 l-53 -54 107 -3 c59 -2 109 -1 112 1 2 2 47 3 101 2 l98
-2 58 55 57 55 -213 0 -214 0 -53 -54z m236 18 c-2 -9 -12 -18 -24 -20 -21 -3
-21 -2 -4 16 22 24 31 26 28 4z"/>
<path d="M1059 1574 c-5 -6 -5 -15 -1 -19 4 -5 2 -5 -4 -2 -14 8 -37 -17 -26
-27 4 -4 0 -6 -8 -4 -8 2 -14 -4 -15 -12 0 -8 -4 -15 -10 -15 -5 0 -17 -5 -25
-10 -19 -13 175 -22 322 -15 l107 5 55 52 54 52 -105 3 c-58 2 -106 1 -108 -2
-2 -3 -53 -3 -115 0 -74 3 -115 1 -121 -6z m211 -18 c0 -3 -4 -8 -10 -11 -5
-3 -10 -1 -10 4 0 6 5 11 10 11 6 0 10 -2 10 -4z m-37 -46 c-3 -11 -7 -20 -9
-20 -2 0 -4 9 -4 20 0 11 4 20 9 20 5 0 7 -9 4 -20z"/>
<path d="M1875 1582 c-2 -2 -1 -11 2 -19 4 -10 0 -14 -13 -11 -14 2 -18 -2
-16 -15 2 -13 -2 -17 -15 -15 -12 2 -17 -2 -15 -14 2 -11 -4 -16 -18 -15 -17
1 -16 6 17 39 20 20 41 34 46 31 6 -3 7 -1 3 5 -5 8 -41 12 -103 12 l-95 0
-55 -55 -54 -54 213 0 213 0 47 46 c39 39 78 62 78 48 0 -12 -85 -83 -93 -78
-6 3 -7 1 -3 -5 5 -8 41 -12 103 -12 l95 0 55 54 54 55 -107 3 c-58 2 -107 1
-109 -2 -2 -3 -53 -3 -115 0 -61 3 -113 3 -115 2z"/>
<path d="M801 1526 l-54 -55 106 -3 c58 -2 103 0 101 4 -7 11 27 39 38 32 7
-4 8 -2 4 4 -4 7 7 25 26 42 l32 30 -100 0 -100 0 -53 -54z"/>
<path d="M2049 1523 l-34 -38 38 34 c34 33 42 41 34 41 -2 0 -19 -17 -38 -37z"/>
<path d="M1984 1458 c-12 -14 -14 -19 -4 -13 8 4 -7 -15 -34 -43 -27 -28 -54
-48 -59 -45 -6 3 -7 1 -3 -5 5 -8 42 -12 104 -12 l97 0 53 55 53 55 -102 0
c-89 0 -100 2 -89 15 20 24 5 18 -16 -7z"/>
<path d="M1753 1459 c-6 -6 -9 -18 -6 -26 4 -10 0 -14 -13 -11 -14 2 -18 -2
-16 -15 2 -13 -2 -17 -15 -15 -13 2 -17 -2 -15 -16 3 -13 -1 -17 -12 -13 -16
6 -32 -8 -18 -17 15 -9 217 -8 215 1 -1 6 19 30 45 54 l47 44 -40 -45 -40 -45
42 39 c23 22 40 43 37 48 -3 4 -50 8 -105 8 -64 0 -98 4 -94 10 8 13 2 13 -12
-1z"/>
<path d="M929 1444 c-5 -6 -5 -15 -1 -19 4 -5 2 -5 -4 -2 -13 7 -37 -16 -29
-26 3 -4 2 -5 -2 -2 -10 8 -33 -16 -26 -29 3 -6 2 -8 -2 -3 -5 4 -17 0 -27
-10 -40 -36 -15 -1 33 46 l52 51 -99 0 -100 0 -54 -55 -54 -55 104 0 c58 -1
205 -1 328 0 l223 0 51 51 c27 27 48 52 46 54 -11 11 -430 10 -439 -1z m211
-18 c0 -3 -4 -8 -10 -11 -5 -3 -10 -1 -10 4 0 6 5 11 10 11 6 0 10 -2 10 -4z
m-60 -60 c0 -3 -4 -8 -10 -11 -5 -3 -10 -1 -10 4 0 6 5 11 10 11 6 0 10 -2 10
-4z"/>
<path d="M4023 1453 c-23 -4 -34 -43 -13 -43 6 0 10 7 10 15 0 8 4 15 10 15 5
0 7 -7 4 -15 -4 -8 -1 -15 6 -15 6 0 9 -4 6 -8 -3 -5 22 -10 54 -11 37 -1 60
2 60 9 0 15 -37 45 -58 46 -9 1 -26 3 -37 6 -11 3 -30 3 -42 1z"/>
<path d="M1482 1395 l-54 -55 101 0 c56 0 103 0 106 0 3 0 5 3 6 8 2 16 22 31
33 25 6 -3 8 -3 4 2 -11 11 12 36 25 28 5 -3 7 -1 4 4 -8 13 17 36 28 25 5 -4
5 -1 1 6 -5 8 -37 12 -104 12 l-97 -1 -53 -54z"/>
<path d="M914 1321 c-2 -2 -49 -3 -104 -2 l-101 2 -55 -55 -55 -55 214 0 214
0 53 54 53 54 -107 3 c-59 2 -109 1 -112 -1z m-33 -58 c-19 -19 -44 -37 -55
-39 -15 -3 -11 5 17 34 20 21 45 38 55 39 14 1 10 -7 -17 -34z"/>
<path d="M854 1258 l-29 -33 33 29 c30 28 37 36 29 36 -2 0 -16 -15 -33 -32z"/>
<path d="M1205 1320 c-3 -5 3 -10 14 -10 12 0 21 5 21 10 0 6 -6 10 -14 10 -8
0 -18 -4 -21 -10z"/>
<path d="M1980 1322 c0 -4 19 -6 43 -4 70 5 76 10 15 11 -32 0 -58 -2 -58 -7z"/>
<path d="M1473 1269 c-29 -28 -53 -52 -53 -55 0 -2 47 -4 105 -4 83 0 105 3
105 14 0 7 9 16 20 19 11 3 20 1 20 -4 0 -5 -7 -9 -15 -9 -8 0 -15 -4 -15 -10
0 -6 40 -10 101 -10 l101 0 55 55 55 55 -214 -1 -213 0 -52 -50z m237 27 c0
-3 -4 -8 -10 -11 -5 -3 -10 -1 -10 4 0 6 5 11 10 11 6 0 10 -2 10 -4z"/>
<path d="M2693 1195 c0 -27 2 -38 4 -22 2 15 2 37 0 50 -2 12 -4 0 -4 -28z"/>
<path d="M1680 1190 c0 -6 33 -10 80 -10 47 0 80 4 80 10 0 6 -33 10 -80 10
-47 0 -80 -4 -80 -10z"/>
<path d="M2681 1114 c0 -11 3 -14 6 -6 3 7 2 16 -1 19 -3 4 -6 -2 -5 -13z"/>
<path d="M2682 998 c-1 -53 -5 -105 -8 -115 -5 -17 -5 -17 6 -1 6 11 9 55 7
115 l-3 98 -2 -97z"/>
<path d="M677 1074 c-14 -14 -7 -35 11 -32 9 2 17 10 17 17 0 16 -18 25 -28
15z"/>
<path d="M1485 1071 c-8 -15 3 -31 21 -31 9 0 14 7 12 17 -4 20 -24 28 -33 14z
m25 -11 c0 -5 -4 -10 -10 -10 -5 0 -10 5 -10 10 0 6 5 10 10 10 6 0 10 -4 10
-10z"/>
<path d="M1050 1026 c-15 -19 -5 -36 21 -36 22 0 25 22 5 39 -10 9 -16 8 -26
-3z"/>
<path d="M1860 1010 c0 -13 7 -20 20 -20 13 0 20 7 20 20 0 13 -7 20 -20 20
-13 0 -20 -7 -20 -20z"/>
<path d="M2110 1009 c0 -5 9 -9 20 -9 11 0 20 2 20 4 0 2 -9 6 -20 9 -11 3
-20 1 -20 -4z"/>
<path d="M4670 942 c0 -18 10 -37 26 -53 l27 -24 -6 25 c-4 14 -7 37 -7 53 0
20 -5 27 -20 27 -15 0 -20 -7 -20 -28z"/>
<path d="M4730 927 c0 -24 3 -47 6 -50 6 -6 74 75 74 87 0 3 -18 6 -40 6 l-40
0 0 -43z"/>
<path d="M4851 963 c1 -5 24 -28 52 -53 28 -25 48 -37 44 -28 -3 9 -9 33 -13
52 -6 34 -8 36 -45 36 -22 0 -39 -3 -38 -7z"/>
<path d="M4950 958 c0 -7 5 -31 11 -52 l11 -39 29 46 c16 26 29 49 29 52 0 3
-18 5 -40 5 -25 0 -40 -5 -40 -12z"/>
<path d="M5115 925 c28 -24 53 -45 57 -45 4 0 -1 19 -11 43 -16 38 -21 42 -57
45 l-39 2 50 -45z"/>
<path d="M5170 963 c0 -4 8 -27 17 -51 l17 -44 22 43 c13 24 23 47 24 52 0 4
-18 7 -40 7 -22 0 -40 -3 -40 -7z"/>
<path d="M5290 965 c0 -7 111 -87 115 -83 2 1 -8 22 -22 46 -22 36 -30 42 -59
42 -19 0 -34 -2 -34 -5z"/>
<path d="M5390 961 c0 -5 11 -28 24 -52 25 -42 25 -43 34 -19 5 14 12 37 16
53 6 26 5 27 -34 27 -22 0 -40 -4 -40 -9z"/>
<path d="M5016 902 c-14 -23 -26 -44 -26 -47 0 -3 18 -5 40 -5 39 0 40 1 34
28 -17 68 -19 69 -48 24z"/>
<path d="M5241 898 c-26 -61 -48 -62 -116 -8 -27 21 -51 37 -53 35 -2 -2 1
-20 8 -39 8 -25 19 -38 37 -42 25 -7 174 3 182 12 3 2 -5 23 -16 47 l-21 42
-21 -47z"/>
<path d="M5469 898 c-6 -24 -16 -46 -22 -50 -6 -4 9 -4 34 -1 24 3 46 7 48 9
5 4 -31 74 -41 80 -4 3 -12 -15 -19 -38z"/>
<path d="M5310 890 c18 -35 25 -40 55 -40 19 0 35 2 35 4 0 5 -98 76 -105 76
-3 0 4 -18 15 -40z"/>
<path d="M970 872 c0 -33 100 -53 154 -30 23 9 31 9 34 0 2 -7 16 -12 30 -11
l27 1 -27 11 c-16 6 -28 17 -28 24 0 10 -23 13 -95 13 -52 0 -95 -3 -95 -8z"/>
<path d="M1790 865 c0 -12 -17 -15 -90 -15 -53 0 -90 -4 -90 -10 0 -6 105 -10
296 -10 232 0 295 3 291 13 -3 8 -35 12 -112 12 -78 0 -109 4 -112 13 -3 8
-31 12 -94 12 -72 0 -89 -3 -89 -15z"/>
<path d="M1235 850 c-3 -4 19 -10 48 -13 48 -4 66 -2 56 7 -9 8 -100 13 -104
6z"/>
<path d="M1433 850 c-37 -15 -27 -20 38 -20 44 0 60 3 57 13 -5 15 -65 20 -95
7z"/>
<path d="M310 840 c18 -12 216 -12 280 -1 31 6 -6 9 -125 10 -113 0 -165 -3
-155 -9z"/>
<path d="M796 840 c7 -7 34 -7 80 -1 l69 8 -79 2 c-54 1 -77 -2 -70 -9z"/>
<path d="M2250 840 c0 -6 35 -10 86 -10 54 0 83 4 79 10 -3 6 -42 10 -86 10
-46 0 -79 -4 -79 -10z"/>
<path d="M5668 838 c41 -7 80 -6 110 0 41 8 34 10 -63 10 -108 -1 -109 -1 -47
-10z"/>
<path d="M825 770 c-8 -13 732 -12 760 0 12 5 -142 9 -367 9 -237 0 -390 -4
-393 -9z"/>
<path d="M1760 770 c70 -10 604 -10 730 0 57 4 -80 7 -345 7 -242 0 -415 -3
-385 -7z"/>
<path d="M2708 773 c34 -2 88 -2 120 0 31 2 3 3 -63 3 -66 0 -92 -1 -57 -3z"/>
<path d="M4891 769 c16 -10 416 -12 406 -2 -4 4 -100 8 -213 9 -119 1 -200 -2
-193 -7z"/>
</g>
</svg>
