<?xml version="1.0" standalone="no"?>
<!DOCTYPE svg PUBLIC "-//W3C//DTD SVG 20010904//EN"
 "http://www.w3.org/TR/2001/REC-SVG-20010904/DTD/svg10.dtd">
<svg version="1.0" xmlns="http://www.w3.org/2000/svg"
 width="920.000000pt" height="613.000000pt" viewBox="0 0 920.000000 613.000000"
 preserveAspectRatio="xMidYMid meet">

<g transform="translate(0.000000,613.000000) scale(0.100000,-0.100000)"
fill="#000000" stroke="none">
<path d="M3247 4704 c-8 -8 1 -24 14 -24 5 0 9 7 9 15 0 15 -12 20 -23 9z"/>
<path d="M3175 4626 c-27 -27 -44 -57 -45 -78 0 -31 18 -19 40 26 11 24 27 47
35 50 8 3 15 9 15 14 0 15 -24 9 -45 -12z"/>
<path d="M2575 4601 c-4 -8 44 -11 158 -11 147 0 166 -2 181 -19 19 -21 9 -64
-19 -75 -9 -3 -86 -6 -171 -6 -96 0 -154 -4 -154 -10 0 -6 63 -10 168 -10 155
0 170 2 187 20 24 26 22 67 -4 93 -20 20 -33 22 -180 25 -105 2 -161 0 -166
-7z"/>
<path d="M3090 4480 c0 -5 4 -10 9 -10 6 0 13 5 16 10 3 6 -1 10 -9 10 -9 0
-16 -4 -16 -10z"/>
<path d="M3165 4470 c-7 -11 51 -42 71 -38 7 2 -4 13 -26 25 -22 12 -42 17
-45 13z"/>
<path d="M3363 4463 c-18 -7 -16 -23 2 -23 8 0 15 7 15 15 0 8 -1 15 -2 14 -2
0 -9 -3 -15 -6z"/>
<path d="M3017 4344 c-16 -16 10 -24 78 -24 62 0 73 2 69 15 -5 11 -23 15 -73
15 -37 0 -71 -3 -74 -6z"/>
<path d="M3010 4300 c0 -6 32 -10 75 -10 43 0 75 4 75 10 0 6 -32 10 -75 10
-43 0 -75 -4 -75 -10z"/>
<path d="M6147 4103 c-4 -3 -7 -10 -7 -15 0 -12 1569 -5 1573 7 2 11 -1555 20
-1566 8z"/>
<path d="M3865 3810 c-3 -5 -1 -10 4 -10 6 0 11 5 11 10 0 6 -2 10 -4 10 -3 0
-8 -4 -11 -10z"/>
<path d="M3803 3748 c-28 -32 -36 -58 -18 -58 8 0 15 6 15 14 0 7 9 25 21 40
25 32 11 35 -18 4z"/>
<path d="M3465 3733 c146 -4 157 -7 153 -41 l-3 -27 -127 -3 c-168 -3 -170
-22 -4 -22 100 0 128 3 140 16 21 21 20 47 -2 67 -16 14 -39 17 -143 15 l-124
-2 110 -3z"/>
<path d="M3750 3650 c0 -5 5 -10 11 -10 5 0 7 5 4 10 -3 6 -8 10 -11 10 -2 0
-4 -4 -4 -10z"/>
<path d="M3814 3625 c11 -8 27 -15 35 -15 11 0 10 4 -5 15 -10 8 -26 14 -34
14 -11 0 -10 -3 4 -14z"/>
<path d="M3945 3630 c-3 -5 -1 -10 4 -10 6 0 11 5 11 10 0 6 -2 10 -4 10 -3 0
-8 -4 -11 -10z"/>
<path d="M3690 3530 c0 -17 7 -20 53 -20 46 0 53 3 54 20 2 18 -4 20 -53 20
-47 0 -54 -2 -54 -20z"/>
<path d="M6805 3530 c-46 -17 -79 -81 -90 -172 -4 -32 -11 -58 -16 -58 -12 0
-11 -28 1 -32 6 -2 14 -30 18 -63 8 -59 7 -61 -32 -117 l-39 -57 -30 17 c-16
9 -47 37 -68 61 -49 56 -51 90 -8 124 40 31 31 57 -9 31 -54 -35 -66 -78 -38
-133 15 -28 72 -83 114 -111 l23 -15 -25 -55 c-28 -60 -35 -153 -13 -181 35
-46 100 -50 194 -13 50 20 67 23 73 14 11 -17 29 -4 24 18 -3 12 12 28 49 54
51 35 55 36 121 31 l69 -6 -7 -59 c-6 -64 -23 -103 -55 -133 -19 -16 -26 -17
-53 -7 -35 13 -54 7 -38 -13 17 -21 62 -25 97 -8 39 18 63 66 77 155 l10 68
36 0 c56 0 134 27 164 56 51 52 27 122 -71 198 -28 23 -50 46 -48 53 5 17 -15
28 -24 14 -5 -8 -25 -3 -69 16 -63 29 -62 28 -109 140 -6 15 63 51 116 59 74
12 89 2 115 -80 5 -13 10 -16 17 -9 7 7 7 23 -1 52 -20 76 -99 90 -219 40 -52
-22 -53 -22 -64 -3 -6 10 -31 41 -56 67 -48 50 -98 71 -136 57z m64 -35 c32
-16 111 -102 111 -119 -1 -17 -96 -81 -120 -80 -127 4 -120 2 -120 29 0 57 23
130 50 157 33 32 40 33 79 13z m151 -196 c12 -23 20 -43 17 -45 -2 -2 -30 4
-63 14 l-59 18 40 27 c22 15 41 27 42 27 1 0 12 -18 23 -41z m-180 -35 c0 -3
-20 -26 -44 -50 l-43 -45 -7 32 c-13 66 -11 69 44 69 28 0 50 -3 50 -6z m160
-33 c51 -16 56 -20 71 -62 10 -25 20 -65 24 -90 7 -45 7 -46 -55 -107 -69 -68
-65 -67 -180 -33 -53 16 -56 18 -72 69 -10 28 -20 69 -24 89 -5 36 -2 41 57
100 69 69 65 68 179 34z m157 -59 l33 -17 -25 -38 c-31 -45 -41 -46 -48 -8 -3
16 -9 40 -13 55 -7 31 6 33 53 8z m154 -109 c80 -87 34 -153 -116 -165 -37 -3
-40 -1 -46 27 -16 75 -10 109 29 161 l37 51 28 -16 c16 -9 46 -35 68 -58z
m-555 -80 c-9 -10 -76 25 -76 38 0 7 12 28 27 47 l26 35 15 -57 c8 -32 11 -60
8 -63z m363 -50 c1 -33 1 -33 -49 -33 -27 0 -50 2 -50 4 0 2 19 23 43 47 46
48 55 45 56 -18z m-397 28 c53 -23 59 -28 83 -84 30 -69 28 -73 -43 -101 -96
-37 -158 -11 -156 65 1 40 42 152 53 147 4 -2 32 -14 63 -27z m176 -62 c19 -4
36 -9 38 -12 5 -4 -60 -57 -70 -57 -6 0 -46 75 -46 85 0 4 10 3 23 -1 12 -4
37 -10 55 -15z"/>
<path d="M4814 3256 c-32 -14 -116 -95 -112 -107 2 -4 23 -23 47 -43 l44 -37
12 28 c31 72 102 110 183 98 17 -3 46 -7 63 -9 l31 -5 -23 26 c-53 57 -171 81
-245 49z"/>
<path d="M4644 3024 c-27 -64 -53 -203 -66 -346 l-12 -138 -83 0 -83 0 0 193
-1 192 -21 -25 c-51 -60 -107 -229 -108 -322 0 -37 -1 -38 -35 -38 -34 0 -35
-1 -35 -40 0 -39 1 -40 35 -40 l35 0 0 -244 c0 -228 1 -247 20 -279 19 -32 20
-52 21 -308 0 -151 0 -291 0 -311 l-1 -37 -670 2 c-665 1 -669 1 -672 22 -3
19 -11 20 -123 23 -140 3 -165 -1 -165 -28 0 -20 -8 -20 -467 -19 l-468 1 -5
22 c-6 20 -12 21 -138 24 -131 3 -132 2 -141 -21 l-9 -24 -507 -1 c-279 0
-509 -3 -512 -6 -3 -3 -3 -12 0 -21 6 -14 420 -15 4169 -13 3955 3 4163 4
4166 21 3 16 -12 17 -216 17 l-220 0 -42 65 c-24 36 -45 64 -47 61 -3 -2 -12
-30 -22 -63 -17 -56 -18 -58 -54 -61 -32 -3 -49 5 -121 57 -46 34 -87 61 -90
61 -3 0 6 -25 21 -55 25 -51 27 -75 4 -61 -6 4 -22 34 -37 66 -15 33 -29 60
-33 60 -3 0 -18 -28 -33 -63 -25 -58 -28 -62 -62 -65 -32 -3 -47 5 -113 58
-42 33 -78 58 -81 56 -2 -3 4 -28 13 -56 9 -28 15 -54 12 -57 -12 -11 -26 9
-42 60 -10 28 -20 55 -24 59 -4 4 -25 -21 -46 -57 -37 -60 -43 -65 -75 -65
-30 0 -48 11 -109 67 l-74 67 7 -39 c4 -22 9 -52 12 -67 4 -21 2 -28 -10 -28
-10 0 -17 13 -22 38 -3 20 -9 50 -13 67 l-7 29 -50 -67 c-44 -60 -52 -67 -85
-67 -25 0 -42 7 -59 25 -30 32 -40 32 -40 0 l0 -25 -215 1 -215 0 0 390 0 389
-85 0 c-81 0 -85 1 -85 23 0 18 -2 19 -10 7 -6 -10 -10 44 -10 163 l0 177
-256 0 c-151 0 -253 4 -250 9 4 5 -2 8 -11 7 -9 -2 -19 -9 -21 -17 -3 -11 -2
-11 6 -1 6 9 11 6 20 -12 l11 -25 221 -3 c121 -2 220 0 220 5 0 4 5 7 10 7 6
0 10 -59 10 -156 0 -92 -4 -153 -9 -149 -5 3 -11 -3 -13 -12 -3 -16 -18 -17
-171 -14 l-167 3 0 -116 c0 -109 -1 -116 -20 -116 -19 0 -20 7 -20 115 0 96
-3 115 -15 115 -8 0 -15 7 -15 15 0 8 6 15 13 15 9 0 9 2 1 8 -7 4 -13 30 -14
57 -3 69 -2 75 15 69 19 -8 88 24 80 36 -7 11 36 25 44 13 7 -10 39 -13 121
-12 57 0 75 9 75 36 0 27 24 26 30 0 5 -18 12 -23 26 -20 13 4 18 1 14 -8 -3
-8 -1 -48 4 -89 8 -72 8 -70 8 55 0 81 -2 117 -7 95 l-7 -35 -2 38 -1 38 -225
-1 c-218 -1 -225 -2 -240 -23 l-15 -21 0 21 c0 12 6 24 13 26 8 4 8 6 -2 6
-11 1 -10 5 5 16 13 10 14 14 4 13 -8 -2 -16 6 -18 19 -3 21 -9 22 -100 25
l-97 3 3 38 3 37 -476 0 c-413 0 -476 2 -481 15 -14 35 29 346 56 412 8 19 3
26 -28 51 -60 47 -61 47 -78 6z m-74 -814 l0 -200 34 0 c19 0 46 -4 60 -10
l26 -10 0 60 0 60 83 1 c45 1 85 1 89 1 3 -1 9 5 12 13 4 13 -10 15 -89 15
l-95 0 0 86 0 85 85 -2 c47 -1 89 1 93 5 15 16 -27 26 -98 25 l-75 -2 0 34 0
34 443 3 442 2 0 -375 0 -375 185 0 185 0 0 65 c0 58 2 65 20 65 18 0 20 -7
20 -65 l0 -65 180 0 180 0 0 -190 0 -190 -50 0 -50 0 0 45 c0 41 -2 45 -25 45
-23 0 -25 -4 -25 -45 l0 -45 -455 0 -455 0 0 45 c0 41 -2 45 -25 45 -23 0 -25
-4 -25 -45 l0 -45 -420 2 -420 2 0 28 c0 21 5 28 20 28 11 0 20 7 20 15 0 8
-9 15 -20 15 -18 0 -20 7 -20 80 0 73 2 80 20 80 11 0 20 7 20 15 0 8 -9 15
-20 15 -18 0 -20 7 -20 85 0 78 2 85 20 85 11 0 20 7 20 15 0 8 -9 15 -20 15
-18 0 -20 7 -20 80 0 72 2 80 19 80 26 0 51 10 51 21 0 5 -16 9 -35 9 l-35 0
0 80 0 80 63 1 c34 1 65 1 70 0 4 0 7 6 7 14 0 12 -14 15 -70 15 l-70 0 0 85
0 85 70 0 c69 0 92 12 48 24 -13 3 -44 6 -70 6 l-48 0 0 35 0 35 85 0 85 0 0
-200z m1430 152 c0 -4 -16 -8 -35 -8 -19 0 -35 4 -35 8 0 4 16 8 35 8 19 0 35
-4 35 -8z m78 -9 c-2 -10 -13 -19 -26 -21 -17 -3 -22 2 -22 17 0 16 6 21 26
21 19 0 25 -5 22 -17z m-208 -68 c-9 -11 -7 -14 16 -12 15 1 29 -4 31 -10 3
-7 0 -13 -7 -13 -6 0 -8 5 -5 10 7 12 -2 12 -30 0 -15 -7 -16 -9 -4 -9 9 -1
22 -8 29 -16 17 -20 7 -19 -32 5 -18 11 -26 20 -18 20 9 0 11 3 5 8 -6 4 -12
19 -13 34 -3 22 0 27 12 22 10 -4 17 -1 17 7 1 8 4 4 6 -9 3 -13 -1 -29 -7
-37z m285 -5 c-3 -5 -11 -10 -16 -10 -6 0 -7 5 -4 10 3 6 11 10 16 10 6 0 7
-4 4 -10z m73 3 c-10 -2 -28 -2 -40 0 -13 2 -5 4 17 4 22 1 32 -1 23 -4z
m-358 -165 c0 -33 -4 -48 -13 -48 -10 0 -14 18 -15 68 -2 61 -1 65 13 48 9
-12 15 -40 15 -68z"/>
<path d="M4978 2332 c-10 -2 -18 -8 -18 -13 0 -5 55 -9 126 -9 96 0 125 3 121
13 -2 8 -34 12 -108 13 -57 0 -112 -1 -121 -4z"/>
<path d="M5313 2333 c-38 -15 0 -23 107 -23 110 0 145 8 104 24 -19 7 -193 7
-211 -1z"/>
<path d="M4965 2131 c-10 -16 33 -22 140 -19 60 2 99 7 98 13 -4 13 -229 19
-238 6z"/>
<path d="M5300 2126 c0 -12 23 -15 120 -15 97 0 120 3 120 15 0 11 -23 14
-120 14 -97 0 -120 -3 -120 -14z"/>
<path d="M4736 1935 c5 -13 19 -15 70 -13 89 4 86 22 -3 26 -63 2 -72 1 -67
-13z"/>
<path d="M4965 1940 c-11 -17 17 -21 130 -18 76 2 110 7 113 16 5 15 -233 18
-243 2z"/>
<path d="M5297 1944 c-18 -18 15 -24 124 -24 99 0 119 3 119 15 0 12 -20 15
-118 15 -65 0 -122 -3 -125 -6z"/>
<path d="M4502 1830 c0 -14 2 -19 5 -12 2 6 2 18 0 25 -3 6 -5 1 -5 -13z"/>
<path d="M4760 1744 c0 -10 15 -14 55 -14 42 0 55 4 55 15 0 11 -13 14 -55 14
-40 -1 -55 -5 -55 -15z"/>
<path d="M4967 1754 c-18 -18 14 -24 124 -24 92 0 120 3 117 13 -5 13 -228 24
-241 11z"/>
<path d="M5306 1752 c-18 -17 6 -22 114 -22 101 0 120 2 120 15 0 13 -18 15
-114 14 -63 0 -117 -4 -120 -7z"/>
<path d="M4760 1550 c0 -12 12 -15 52 -14 29 1 54 7 56 13 2 6 -2 11 -10 12
-90 4 -98 3 -98 -11z"/>
<path d="M4963 1557 c-10 -16 8 -20 117 -23 98 -3 110 -1 110 14 0 15 -13 17
-111 17 -61 0 -113 -4 -116 -8z"/>
<path d="M4458 1533 c7 -3 16 -2 19 1 4 3 -2 6 -13 5 -11 0 -14 -3 -6 -6z"/>
<path d="M4466 1503 c-6 -14 -5 -15 5 -6 7 7 10 15 7 18 -3 3 -9 -2 -12 -12z"/>
<path d="M4462 1384 c-15 -16 -8 -34 14 -34 15 0 16 6 6 31 -6 15 -9 15 -20 3z"/>
<path d="M4760 1355 c0 -13 10 -15 55 -13 30 2 55 8 55 13 0 6 -25 11 -55 13
-45 2 -55 0 -55 -13z"/>
<path d="M4967 1364 c-17 -18 14 -24 114 -24 90 0 109 3 109 15 0 12 -19 15
-108 15 -60 0 -112 -3 -115 -6z"/>
<path d="M4477 1329 c7 -7 15 -10 18 -7 3 3 -2 9 -12 12 -14 6 -15 5 -6 -5z"/>
<path d="M1950 2555 c-19 -19 -29 -35 -24 -35 13 0 69 58 63 65 -3 2 -21 -11
-39 -30z"/>
<path d="M3190 2575 c-7 -9 -17 -12 -24 -7 -6 4 -73 7 -149 6 l-137 -1 -86
-85 -85 -86 148 1 147 0 80 78 c44 44 83 75 86 69 4 -6 16 0 30 15 13 14 19
25 13 25 -6 0 -16 -7 -23 -15z m-270 -39 c0 -3 -4 -8 -10 -11 -5 -3 -10 -1
-10 4 0 6 5 11 10 11 6 0 10 -2 10 -4z m80 0 c0 -3 -4 -8 -10 -11 -5 -3 -10
-1 -10 4 0 6 5 11 10 11 6 0 10 -2 10 -4z m80 0 c0 -11 -19 -15 -25 -6 -3 5 1
10 9 10 9 0 16 -2 16 -4z m-200 -46 c0 -5 -7 -10 -16 -10 -8 0 -12 5 -9 10 3
6 10 10 16 10 5 0 9 -4 9 -10z m70 0 c0 -5 -5 -10 -11 -10 -5 0 -7 5 -4 10 3
6 8 10 11 10 2 0 4 -4 4 -10z m80 0 c0 -5 -5 -10 -11 -10 -5 0 -7 5 -4 10 3 6
8 10 11 10 2 0 4 -4 4 -10z m-193 -46 c-3 -3 -12 -4 -19 -1 -8 3 -5 6 6 6 11
1 17 -2 13 -5z m73 2 c0 -3 -4 -8 -10 -11 -5 -3 -10 -1 -10 4 0 6 5 11 10 11
6 0 10 -2 10 -4z m77 -2 c-3 -3 -12 -4 -19 -1 -8 3 -5 6 6 6 11 1 17 -2 13 -5z"/>
<path d="M1658 2571 c-13 -4 -168 -155 -168 -163 0 -3 66 -5 147 -6 l146 0 85
84 c46 46 82 84 80 84 -23 3 -281 4 -290 1z m37 -41 c-3 -5 -11 -10 -16 -10
-6 0 -7 5 -4 10 3 6 11 10 16 10 6 0 7 -4 4 -10z m85 6 c0 -2 -7 -6 -15 -10
-8 -3 -15 -1 -15 4 0 6 7 10 15 10 8 0 15 -2 15 -4z m70 0 c0 -3 -4 -8 -10
-11 -5 -3 -10 -1 -10 4 0 6 5 11 10 11 6 0 10 -2 10 -4z m-200 -46 c0 -5 -5
-10 -11 -10 -5 0 -7 5 -4 10 3 6 8 10 11 10 2 0 4 -4 4 -10z m80 0 c0 -5 -8
-10 -17 -10 -15 0 -16 2 -3 10 19 12 20 12 20 0z m80 0 c0 -5 -8 -10 -17 -10
-15 0 -16 2 -3 10 19 12 20 12 20 0z m-203 -46 c-3 -3 -12 -4 -19 -1 -8 3 -5
6 6 6 11 1 17 -2 13 -5z m80 0 c-3 -3 -12 -4 -19 -1 -8 3 -5 6 6 6 11 1 17 -2
13 -5z m83 2 c0 -2 -7 -6 -15 -10 -8 -3 -15 -1 -15 4 0 6 7 10 15 10 8 0 15
-2 15 -4z"/>
<path d="M1917 2489 l-89 -87 149 0 148 0 84 84 c46 46 80 84 75 85 -5 0 -70
1 -144 2 l-135 2 -88 -86z m123 47 c0 -3 -4 -8 -10 -11 -5 -3 -10 -1 -10 4 0
6 5 11 10 11 6 0 10 -2 10 -4z m80 0 c0 -3 -4 -8 -10 -11 -5 -3 -10 -1 -10 4
0 6 5 11 10 11 6 0 10 -2 10 -4z m80 0 c0 -2 -7 -6 -15 -10 -8 -3 -15 -1 -15
4 0 6 7 10 15 10 8 0 15 -2 15 -4z m-200 -46 c0 -5 -8 -10 -17 -10 -15 0 -16
2 -3 10 19 12 20 12 20 0z m70 0 c0 -5 -5 -10 -11 -10 -5 0 -7 5 -4 10 3 6 8
10 11 10 2 0 4 -4 4 -10z m80 0 c0 -5 -5 -10 -11 -10 -5 0 -7 5 -4 10 3 6 8
10 11 10 2 0 4 -4 4 -10z m-193 -46 c-3 -3 -12 -4 -19 -1 -8 3 -5 6 6 6 11 1
17 -2 13 -5z m150 0 c-3 -3 -12 -4 -19 -1 -8 3 -5 6 6 6 11 1 17 -2 13 -5z"/>
<path d="M3219 2568 c-11 -4 -22 -15 -26 -23 -3 -9 -12 -14 -19 -11 -13 5 -84
-54 -84 -70 0 -4 19 10 42 31 22 22 35 31 27 19 -8 -11 -33 -38 -56 -59 -24
-22 -43 -42 -43 -46 0 -3 66 -6 147 -7 l146 0 85 84 c46 46 82 85 80 85 -15 6
-284 2 -299 -3z m51 -32 c0 -2 -7 -6 -15 -10 -8 -3 -15 -1 -15 4 0 6 7 10 15
10 8 0 15 -2 15 -4z m80 0 c0 -2 -7 -6 -15 -10 -8 -3 -15 -1 -15 4 0 6 7 10
15 10 8 0 15 -2 15 -4z m70 0 c0 -3 -4 -8 -10 -11 -5 -3 -10 -1 -10 4 0 6 5
11 10 11 6 0 10 -2 10 -4z m-200 -46 c0 -5 -5 -10 -11 -10 -5 0 -7 5 -4 10 3
6 8 10 11 10 2 0 4 -4 4 -10z m80 0 c0 -5 -8 -10 -17 -10 -15 0 -16 2 -3 10
19 12 20 12 20 0z m75 0 c-3 -5 -11 -10 -16 -10 -6 0 -7 5 -4 10 3 6 11 10 16
10 6 0 7 -4 4 -10z m-198 -46 c-3 -3 -12 -4 -19 -1 -8 3 -5 6 6 6 11 1 17 -2
13 -5z m83 2 c0 -2 -7 -6 -15 -10 -8 -3 -15 -1 -15 4 0 6 7 10 15 10 8 0 15
-2 15 -4z m70 0 c0 -3 -4 -8 -10 -11 -5 -3 -10 -1 -10 4 0 6 5 11 10 11 6 0
10 -2 10 -4z"/>
<path d="M1850 2455 c-36 -36 -62 -65 -58 -65 10 0 132 119 127 125 -3 2 -34
-25 -69 -60z"/>
<path d="M3040 2425 c-19 -19 -30 -35 -24 -35 6 0 25 16 44 35 19 19 30 35 24
35 -5 0 -25 -16 -44 -35z"/>
<path d="M6400 2449 c0 -5 -6 -7 -12 -3 -10 6 -10 5 -1 -7 8 -10 13 -68 16
-175 l3 -159 2 178 c1 97 0 177 -3 177 -3 0 -5 -5 -5 -11z"/>
<path d="M1597 2373 c-9 -10 -17 -12 -17 -6 0 7 -48 11 -147 11 l-146 0 -86
-84 c-47 -46 -78 -84 -70 -85 84 -3 272 0 290 6 22 7 20 4 -10 -29 -38 -39
-46 -44 -38 -21 5 12 -16 14 -140 14 l-145 0 -86 -84 -85 -85 160 3 c105 1
159 -1 155 -8 -3 -5 2 -4 11 4 20 16 23 26 5 15 -8 -5 -7 2 3 16 9 13 22 26
30 29 12 3 11 1 -1 -15 -14 -18 -14 -18 2 -5 10 7 15 18 12 23 -7 10 24 48 39
48 5 0 3 -8 -4 -17 -11 -16 -11 -16 1 -5 8 7 15 20 15 29 0 9 7 19 15 21 12 4
13 3 3 -10 -7 -8 -10 -18 -7 -21 9 -9 -76 -88 -87 -82 -5 4 -6 -1 -3 -9 4 -12
33 -14 152 -15 l147 0 65 67 c36 37 74 73 85 81 11 8 -18 -24 -65 -72 -46 -48
-80 -87 -75 -87 6 0 98 88 205 195 107 107 190 195 185 195 -5 0 -57 -47 -115
-105 l-106 -106 -166 -2 -167 -2 27 29 c15 16 21 26 14 21 -11 -6 -12 -3 -3
13 6 11 17 22 26 26 8 3 15 12 15 19 0 8 11 19 25 25 14 6 25 16 25 21 0 6 10
16 23 22 l22 12 -20 -24 -20 -24 28 24 c21 20 27 21 27 8 0 -8 -9 -19 -20 -22
-11 -3 -25 -15 -30 -26 -6 -10 -16 -19 -22 -19 -7 0 -6 6 3 18 7 9 -5 0 -28
-21 -26 -25 -39 -45 -36 -56 4 -16 19 -17 150 -15 l145 3 79 79 c44 44 79 82
79 85 0 9 -290 5 -296 -4 -3 -5 -10 -9 -16 -9 -7 0 -6 6 2 15 17 20 8 19 -13
-2z m-267 -33 c0 -5 -8 -10 -17 -10 -15 0 -16 2 -3 10 19 12 20 12 20 0z m420
0 c0 -5 -8 -10 -17 -10 -15 0 -16 2 -3 10 19 12 20 12 20 0z m80 0 c0 -5 -8
-10 -17 -10 -15 0 -16 2 -3 10 19 12 20 12 20 0z m-423 -6 c-3 -3 -12 -4 -19
-1 -8 3 -5 6 6 6 11 1 17 -2 13 -5z m-117 -38 c0 -2 -7 -6 -15 -10 -8 -3 -15
-1 -15 4 0 6 7 10 15 10 8 0 15 -2 15 -4z m70 0 c0 -3 -4 -8 -10 -11 -5 -3
-10 -1 -10 4 0 6 5 11 10 11 6 0 10 -2 10 -4z m80 0 c0 -3 -4 -8 -10 -11 -5
-3 -10 -1 -10 4 0 6 5 11 10 11 6 0 10 -2 10 -4z m190 0 c0 -3 -4 -8 -10 -11
-5 -3 -10 -1 -10 4 0 6 5 11 10 11 6 0 10 -2 10 -4z m80 0 c0 -2 -7 -6 -15
-10 -8 -3 -15 -1 -15 4 0 6 7 10 15 10 8 0 15 -2 15 -4z m70 0 c0 -3 -4 -8
-10 -11 -5 -3 -10 -1 -10 4 0 6 5 11 10 11 6 0 10 -2 10 -4z m-260 -25 c0 -13
-29 -41 -42 -41 -7 0 -1 11 12 25 26 27 30 30 30 16z m-280 -21 c0 -5 -5 -10
-11 -10 -5 0 -7 5 -4 10 3 6 8 10 11 10 2 0 4 -4 4 -10z m80 0 c0 -5 -8 -10
-17 -10 -15 0 -16 2 -3 10 19 12 20 12 20 0z m70 0 c0 -5 -5 -10 -11 -10 -5 0
-7 5 -4 10 3 6 8 10 11 10 2 0 4 -4 4 -10z m195 0 c-3 -5 -11 -10 -16 -10 -6
0 -7 5 -4 10 3 6 11 10 16 10 6 0 7 -4 4 -10z m75 0 c0 -5 -5 -10 -11 -10 -5
0 -7 5 -4 10 3 6 8 10 11 10 2 0 4 -4 4 -10z m80 0 c0 -5 -8 -10 -17 -10 -15
0 -16 2 -3 10 19 12 20 12 20 0z m-342 -102 c-8 -12 -21 -24 -29 -26 -8 -3 -3
7 10 22 30 32 39 34 19 4z m-268 -2 c0 -3 -4 -8 -10 -11 -5 -3 -10 -1 -10 4 0
6 5 11 10 11 6 0 10 -2 10 -4z m75 -6 c-3 -5 -11 -10 -16 -10 -6 0 -7 5 -4 10
3 6 11 10 16 10 6 0 7 -4 4 -10z m80 0 c-3 -5 -11 -10 -16 -10 -6 0 -7 5 -4
10 3 6 11 10 16 10 6 0 7 -4 4 -10z m190 0 c-3 -5 -11 -10 -16 -10 -6 0 -7 5
-4 10 3 6 11 10 16 10 6 0 7 -4 4 -10z m75 0 c0 -5 -5 -10 -11 -10 -5 0 -7 5
-4 10 3 6 8 10 11 10 2 0 4 -4 4 -10z m80 6 c0 -3 -4 -8 -10 -11 -5 -3 -10 -1
-10 4 0 6 5 11 10 11 6 0 10 -2 10 -4z m-390 -46 c0 -5 -5 -10 -11 -10 -5 0
-7 5 -4 10 3 6 8 10 11 10 2 0 4 -4 4 -10z m190 0 c0 -5 -5 -10 -11 -10 -5 0
-7 5 -4 10 3 6 8 10 11 10 2 0 4 -4 4 -10z m80 0 c0 -5 -8 -10 -17 -10 -15 0
-16 2 -3 10 19 12 20 12 20 0z m80 0 c0 -5 -8 -10 -17 -10 -15 0 -16 2 -3 10
19 12 20 12 20 0z m-503 -6 c-3 -3 -12 -4 -19 -1 -8 3 -5 6 6 6 11 1 17 -2 13
-5z m80 0 c-3 -3 -12 -4 -19 -1 -8 3 -5 6 6 6 11 1 17 -2 13 -5z m-117 -38 c0
-2 -7 -6 -15 -10 -8 -3 -15 -1 -15 4 0 6 7 10 15 10 8 0 15 -2 15 -4z m70 0
c0 -3 -4 -8 -10 -11 -5 -3 -10 -1 -10 4 0 6 5 11 10 11 6 0 10 -2 10 -4z m80
0 c0 -3 -4 -8 -10 -11 -5 -3 -10 -1 -10 4 0 6 5 11 10 11 6 0 10 -2 10 -4z
m190 0 c0 -3 -4 -8 -10 -11 -5 -3 -10 -1 -10 4 0 6 5 11 10 11 6 0 10 -2 10
-4z m80 0 c0 -2 -7 -6 -15 -10 -8 -3 -15 -1 -15 4 0 6 7 10 15 10 8 0 15 -2
15 -4z m70 0 c0 -3 -4 -8 -10 -11 -5 -3 -10 -1 -10 4 0 6 5 11 10 11 6 0 10
-2 10 -4z"/>
<path d="M2729 2284 l-106 -106 -158 1 -157 2 -34 -35 c-19 -19 -34 -40 -34
-46 0 -5 -5 -10 -11 -10 -11 0 -79 -64 -79 -74 0 -2 66 -4 148 -5 l147 0 65
67 c36 37 74 73 85 81 11 8 -17 -23 -62 -70 -46 -46 -83 -89 -83 -95 0 -6 -29
-9 -75 -7 -72 3 -77 1 -107 -27 -17 -17 -34 -30 -38 -30 -3 0 -19 -18 -36 -39
-16 -22 -39 -45 -52 -50 -45 -21 -10 -29 132 -27 l144 1 81 81 c45 45 81 84
81 88 0 4 -15 7 -32 5 -103 -7 -103 -10 21 115 63 63 119 112 125 109 5 -4 72
-6 149 -6 l139 1 84 85 84 84 -147 1 -147 0 -68 -67 c-37 -38 -75 -74 -85 -81
-10 -8 20 25 67 73 46 48 80 87 75 87 -6 0 -58 -48 -116 -106z m171 56 c0 -5
-8 -10 -17 -10 -15 0 -16 2 -3 10 19 12 20 12 20 0z m150 0 c0 -5 -5 -10 -11
-10 -5 0 -7 5 -4 10 3 6 8 10 11 10 2 0 4 -4 4 -10z m-73 -6 c-3 -3 -12 -4
-19 -1 -8 3 -5 6 6 6 11 1 17 -2 13 -5z m-117 -38 c0 -2 -7 -6 -15 -10 -8 -3
-15 -1 -15 4 0 6 7 10 15 10 8 0 15 -2 15 -4z m70 0 c0 -3 -4 -8 -10 -11 -5
-3 -10 -1 -10 4 0 6 5 11 10 11 6 0 10 -2 10 -4z m80 0 c0 -3 -4 -8 -10 -11
-5 -3 -10 -1 -10 4 0 6 5 11 10 11 6 0 10 -2 10 -4z m-200 -46 c0 -5 -8 -10
-17 -10 -15 0 -16 2 -3 10 19 12 20 12 20 0z m75 0 c-3 -5 -11 -10 -16 -10 -6
0 -7 5 -4 10 3 6 11 10 16 10 6 0 7 -4 4 -10z m75 0 c0 -5 -5 -10 -11 -10 -5
0 -7 5 -4 10 3 6 8 10 11 10 2 0 4 -4 4 -10z m-605 -110 c-3 -5 -11 -10 -16
-10 -6 0 -7 5 -4 10 3 6 11 10 16 10 6 0 7 -4 4 -10z m80 0 c-3 -5 -11 -10
-16 -10 -6 0 -7 5 -4 10 3 6 11 10 16 10 6 0 7 -4 4 -10z m-125 -40 c0 -5 -5
-10 -11 -10 -5 0 -7 5 -4 10 3 6 8 10 11 10 2 0 4 -4 4 -10z m80 0 c0 -5 -8
-10 -17 -10 -15 0 -16 2 -3 10 19 12 20 12 20 0z m80 0 c0 -5 -8 -10 -17 -10
-15 0 -16 2 -3 10 19 12 20 12 20 0z m-200 -44 c0 -3 -4 -8 -10 -11 -5 -3 -10
-1 -10 4 0 6 5 11 10 11 6 0 10 -2 10 -4z m80 0 c0 -2 -7 -6 -15 -10 -8 -3
-15 -1 -15 4 0 6 7 10 15 10 8 0 15 -2 15 -4z m70 0 c0 -3 -4 -8 -10 -11 -5
-3 -10 -1 -10 4 0 6 5 11 10 11 6 0 10 -2 10 -4z m-13 -112 c-3 -3 -12 -4 -19
-1 -8 3 -5 6 6 6 11 1 17 -2 13 -5z m80 0 c-3 -3 -12 -4 -19 -1 -8 3 -5 6 6 6
11 1 17 -2 13 -5z m-202 -44 c-3 -5 -11 -10 -16 -10 -6 0 -7 5 -4 10 3 6 11
10 16 10 6 0 7 -4 4 -10z m80 0 c-3 -5 -11 -10 -16 -10 -6 0 -7 5 -4 10 3 6
11 10 16 10 6 0 7 -4 4 -10z m75 6 c0 -3 -4 -8 -10 -11 -5 -3 -10 -1 -10 4 0
6 5 11 10 11 6 0 10 -2 10 -4z m-195 -46 c3 -5 -1 -10 -10 -10 -9 0 -13 5 -10
10 3 6 8 10 10 10 2 0 7 -4 10 -10z m75 0 c0 -5 -5 -10 -11 -10 -5 0 -7 5 -4
10 3 6 8 10 11 10 2 0 4 -4 4 -10z m80 0 c0 -5 -8 -10 -17 -10 -15 0 -16 2 -3
10 19 12 20 12 20 0z"/>
<path d="M3055 2258 c-72 -73 -117 -121 -102 -108 21 19 26 20 21 7 -3 -10
-15 -22 -25 -28 -11 -5 -19 -16 -19 -24 0 -8 -7 -15 -15 -15 -8 0 -22 -11 -30
-24 -9 -13 -24 -27 -33 -31 -10 -4 -5 7 13 27 16 18 9 13 -17 -11 -83 -78 -62
-38 24 48 l83 81 -150 0 -150 -1 -83 -83 -83 -84 145 0 c79 0 150 -3 156 -7 6
-4 20 1 31 11 10 9 19 12 19 6 0 -7 49 -10 147 -10 l147 0 85 85 84 84 -161
-3 -161 -3 21 22 c12 12 25 20 30 17 6 -4 74 -7 153 -7 l143 -1 81 81 c45 44
81 83 81 86 0 3 -69 5 -154 4 -85 -1 -152 1 -149 6 12 20 -13 -4 -132 -125z
m125 108 c0 -7 -112 -119 -135 -135 -11 -8 14 20 55 62 72 75 80 82 80 73z
m60 -26 c0 -5 -5 -10 -11 -10 -5 0 -7 5 -4 10 3 6 8 10 11 10 2 0 4 -4 4 -10z
m80 0 c0 -5 -8 -10 -17 -10 -15 0 -16 2 -3 10 19 12 20 12 20 0z m77 -6 c-3
-3 -12 -4 -19 -1 -8 3 -5 6 6 6 11 1 17 -2 13 -5z m-197 -38 c0 -2 -7 -6 -15
-10 -8 -3 -15 -1 -15 4 0 6 7 10 15 10 8 0 15 -2 15 -4z m80 0 c0 -2 -7 -6
-15 -10 -8 -3 -15 -1 -15 4 0 6 7 10 15 10 8 0 15 -2 15 -4z m70 0 c0 -3 -4
-8 -10 -11 -5 -3 -10 -1 -10 4 0 6 5 11 10 11 6 0 10 -2 10 -4z m-200 -46 c0
-5 -5 -10 -11 -10 -5 0 -7 5 -4 10 3 6 8 10 11 10 2 0 4 -4 4 -10z m80 0 c0
-5 -5 -10 -11 -10 -5 0 -7 5 -4 10 3 6 8 10 11 10 2 0 4 -4 4 -10z m80 0 c0
-5 -8 -10 -17 -10 -15 0 -16 2 -3 10 19 12 20 12 20 0z m-610 -104 c0 -3 -4
-8 -10 -11 -5 -3 -10 -1 -10 4 0 6 5 11 10 11 6 0 10 -2 10 -4z m75 -6 c-3 -5
-11 -10 -16 -10 -6 0 -7 5 -4 10 3 6 11 10 16 10 6 0 7 -4 4 -10z m80 0 c-3
-5 -11 -10 -16 -10 -6 0 -7 5 -4 10 3 6 11 10 16 10 6 0 7 -4 4 -10z m190 0
c-3 -5 -11 -10 -16 -10 -6 0 -7 5 -4 10 3 6 11 10 16 10 6 0 7 -4 4 -10z m155
6 c0 -3 -4 -8 -10 -11 -5 -3 -10 -1 -10 4 0 6 5 11 10 11 6 0 10 -2 10 -4z
m-540 -46 c0 -5 -8 -10 -17 -10 -15 0 -16 2 -3 10 19 12 20 12 20 0z m150 0
c0 -5 -5 -10 -11 -10 -5 0 -7 5 -4 10 3 6 8 10 11 10 2 0 4 -4 4 -10z m190 0
c0 -5 -5 -10 -11 -10 -5 0 -7 5 -4 10 3 6 8 10 11 10 2 0 4 -4 4 -10z m80 0
c0 -5 -8 -10 -17 -10 -15 0 -16 2 -3 10 19 12 20 12 20 0z m-343 -6 c-3 -3
-12 -4 -19 -1 -8 3 -5 6 6 6 11 1 17 -2 13 -5z m420 0 c-3 -3 -12 -4 -19 -1
-8 3 -5 6 6 6 11 1 17 -2 13 -5z m-547 -38 c0 -3 -4 -8 -10 -11 -5 -3 -10 -1
-10 4 0 6 5 11 10 11 6 0 10 -2 10 -4z m80 0 c0 -3 -4 -8 -10 -11 -5 -3 -10
-1 -10 4 0 6 5 11 10 11 6 0 10 -2 10 -4z m80 0 c0 -2 -7 -6 -15 -10 -8 -3
-15 -1 -15 4 0 6 7 10 15 10 8 0 15 -2 15 -4z m190 0 c0 -2 -7 -7 -16 -10 -8
-3 -12 -2 -9 4 6 10 25 14 25 6z m80 0 c0 -2 -7 -6 -15 -10 -8 -3 -15 -1 -15
4 0 6 7 10 15 10 8 0 15 -2 15 -4z m70 0 c0 -3 -4 -8 -10 -11 -5 -3 -10 -1
-10 4 0 6 5 11 10 11 6 0 10 -2 10 -4z"/>
<path d="M1893 2295 c-50 -48 -79 -84 -71 -86 7 -2 51 -4 98 -3 190 3 182 1
223 37 20 19 37 39 37 45 0 7 4 12 9 12 8 0 81 67 81 75 0 1 -66 3 -147 3
l-146 0 -84 -83z m127 45 c0 -5 -8 -10 -17 -10 -15 0 -16 2 -3 10 19 12 20 12
20 0z m77 -6 c-3 -3 -12 -4 -19 -1 -8 3 -5 6 6 6 11 1 17 -2 13 -5z m-117 -38
c0 -2 -7 -6 -15 -10 -8 -3 -15 -1 -15 4 0 6 7 10 15 10 8 0 15 -2 15 -4z m70
0 c0 -3 -4 -8 -10 -11 -5 -3 -10 -1 -10 4 0 6 5 11 10 11 6 0 10 -2 10 -4z
m75 -6 c-3 -5 -11 -10 -16 -10 -6 0 -7 5 -4 10 3 6 11 10 16 10 6 0 7 -4 4
-10z m-195 -40 c0 -5 -8 -10 -17 -10 -15 0 -16 2 -3 10 19 12 20 12 20 0z m75
0 c-3 -5 -11 -10 -16 -10 -6 0 -7 5 -4 10 3 6 11 10 16 10 6 0 7 -4 4 -10z
m75 0 c0 -5 -5 -10 -11 -10 -5 0 -7 5 -4 10 3 6 8 10 11 10 2 0 4 -4 4 -10z"/>
<path d="M2496 2368 c-9 -5 -16 -16 -16 -23 0 -8 -5 -15 -11 -15 -13 0 -134
-120 -122 -121 4 -1 73 -1 152 0 l144 1 79 79 c43 43 78 81 78 84 0 9 -286 5
-304 -5z m134 -28 c0 -5 -8 -10 -17 -10 -15 0 -16 2 -3 10 19 12 20 12 20 0z
m77 -6 c-3 -3 -12 -4 -19 -1 -8 3 -5 6 6 6 11 1 17 -2 13 -5z m-197 -38 c0 -3
-4 -8 -10 -11 -5 -3 -10 -1 -10 4 0 6 5 11 10 11 6 0 10 -2 10 -4z m75 -6 c-3
-5 -10 -10 -16 -10 -5 0 -9 5 -9 10 0 6 7 10 16 10 8 0 12 -4 9 -10z m75 6 c0
-3 -4 -8 -10 -11 -5 -3 -10 -1 -10 4 0 6 5 11 10 11 6 0 10 -2 10 -4z m-195
-46 c-3 -5 -11 -10 -16 -10 -6 0 -7 5 -4 10 3 6 11 10 16 10 6 0 7 -4 4 -10z
m75 0 c0 -5 -5 -10 -11 -10 -5 0 -7 5 -4 10 3 6 8 10 11 10 2 0 4 -4 4 -10z
m80 0 c0 -5 -8 -10 -17 -10 -15 0 -16 2 -3 10 19 12 20 12 20 0z"/>
<path d="M6257 2264 c-6 -6 35 -44 47 -44 11 0 6 19 -10 34 -17 17 -27 20 -37
10z"/>
<path d="M6044 2183 c-14 -3 -24 -13 -27 -29 -4 -22 -1 -24 29 -24 19 0 34 -4
34 -10 0 -5 14 -10 30 -10 17 0 30 -5 30 -11 0 -7 -10 -9 -24 -7 -14 3 -42 2
-63 -2 -26 -5 -1 -8 79 -9 117 -1 118 -1 114 22 -3 12 -5 26 -5 30 -3 25 -139
60 -197 50z m18 -28 c0 -5 -5 -11 -11 -13 -6 -2 -11 4 -11 13 0 9 5 15 11 13
6 -2 11 -8 11 -13z m131 -32 c-7 -2 -19 -2 -25 0 -7 3 -2 5 12 5 14 0 19 -2
13 -5z m0 -30 c-7 -2 -19 -2 -25 0 -7 3 -2 5 12 5 14 0 19 -2 13 -5z"/>
<path d="M1692 2096 l-83 -84 150 0 149 0 26 29 c15 16 31 29 36 29 6 0 10 4
10 9 0 6 21 30 48 55 l47 46 -150 -1 -150 0 -83 -83z m128 50 c0 -3 -4 -8 -10
-11 -5 -3 -10 -1 -10 4 0 6 5 11 10 11 6 0 10 -2 10 -4z m75 -6 c-3 -5 -11
-10 -16 -10 -6 0 -7 5 -4 10 3 6 11 10 16 10 6 0 7 -4 4 -10z m80 0 c-3 -5
-11 -10 -16 -10 -6 0 -7 5 -4 10 3 6 11 10 16 10 6 0 7 -4 4 -10z m-198 -46
c-3 -3 -12 -4 -19 -1 -8 3 -5 6 6 6 11 1 17 -2 13 -5z m80 0 c-3 -3 -12 -4
-19 -1 -8 3 -5 6 6 6 11 1 17 -2 13 -5z m-127 -38 c0 -3 -4 -8 -10 -11 -5 -3
-10 -1 -10 4 0 6 5 11 10 11 6 0 10 -2 10 -4z m80 0 c0 -3 -4 -8 -10 -11 -5
-3 -10 -1 -10 4 0 6 5 11 10 11 6 0 10 -2 10 -4z m75 -6 c-3 -5 -10 -10 -16
-10 -5 0 -9 5 -9 10 0 6 7 10 16 10 8 0 12 -4 9 -10z"/>
<path d="M2904 2108 l-19 -23 23 19 c12 11 22 21 22 23 0 8 -8 2 -26 -19z"/>
<path d="M930 1989 c-25 -3 -43 -7 -40 -9 14 -7 141 -7 145 0 7 11 -51 16
-105 9z"/>
<path d="M1375 1980 c-10 -11 -14 -20 -9 -20 5 0 15 9 22 20 7 11 11 20 9 20
-2 0 -12 -9 -22 -20z"/>
<path d="M1760 1992 c-6 -2 -10 -7 -10 -12 0 -5 38 -8 85 -7 47 1 85 5 85 8 0
8 -143 17 -160 11z"/>
<path d="M2155 1989 c-60 -7 -51 -11 33 -13 35 -1 67 3 72 9 10 12 -28 13
-105 4z"/>
<path d="M2515 1900 l-100 -100 -162 0 c-102 0 -163 -4 -163 -10 0 -6 122 -10
346 -10 227 0 343 3 339 10 -4 6 -73 10 -173 10 l-167 0 100 100 c55 55 95
100 90 100 -6 0 -55 -45 -110 -100z"/>
<path d="M2973 1987 c1 -5 6 -8 10 -8 4 1 41 1 82 1 41 0 75 3 75 8 0 4 -38 7
-85 7 -47 0 -84 -4 -82 -8z"/>
<path d="M983 1905 c-46 -45 -83 -84 -83 -87 0 -3 67 -5 149 -4 l148 1 71 73
c69 70 111 101 61 45 l-24 -28 25 22 c14 12 26 31 27 41 1 18 -7 19 -145 19
l-146 0 -83 -82z m124 39 c-3 -3 -12 -4 -19 -1 -8 3 -5 6 6 6 11 1 17 -2 13
-5z m80 0 c-3 -3 -12 -4 -19 -1 -8 3 -5 6 6 6 11 1 17 -2 13 -5z m-122 -44
c-3 -5 -11 -10 -16 -10 -6 0 -7 5 -4 10 3 6 11 10 16 10 6 0 7 -4 4 -10z m75
6 c0 -3 -4 -8 -10 -11 -5 -3 -10 -1 -10 4 0 6 5 11 10 11 6 0 10 -2 10 -4z
m75 -6 c-3 -5 -11 -10 -16 -10 -6 0 -7 5 -4 10 3 6 11 10 16 10 6 0 7 -4 4
-10z m-195 -40 c0 -5 -8 -10 -17 -10 -15 0 -16 2 -3 10 19 12 20 12 20 0z m77
-6 c-3 -3 -12 -4 -19 -1 -8 3 -5 6 6 6 11 1 17 -2 13 -5z"/>
<path d="M1332 1906 c-45 -46 -82 -85 -82 -88 0 -3 65 -5 144 -4 l144 1 81 81
c45 45 81 83 81 86 0 3 -64 5 -143 5 l-144 1 -81 -82z m195 38 c-3 -3 -12 -4
-19 -1 -8 3 -5 6 6 6 11 1 17 -2 13 -5z m80 0 c-3 -3 -12 -4 -19 -1 -8 3 -5 6
6 6 11 1 17 -2 13 -5z m-202 -44 c-3 -5 -11 -10 -16 -10 -6 0 -7 5 -4 10 3 6
11 10 16 10 6 0 7 -4 4 -10z m80 0 c-3 -5 -11 -10 -16 -10 -6 0 -7 5 -4 10 3
6 11 10 16 10 6 0 7 -4 4 -10z m75 6 c0 -3 -4 -8 -10 -11 -5 -3 -10 -1 -10 4
0 6 5 11 10 11 6 0 10 -2 10 -4z m-120 -46 c0 -5 -5 -10 -11 -10 -5 0 -7 5 -4
10 3 6 8 10 11 10 2 0 4 -4 4 -10z m80 0 c0 -5 -8 -10 -17 -10 -15 0 -16 2 -3
10 19 12 20 12 20 0z m-153 -6 c-3 -3 -12 -4 -19 -1 -8 3 -5 6 6 6 11 1 17 -2
13 -5z"/>
<path d="M2553 1905 c-46 -45 -83 -84 -83 -87 0 -3 67 -5 149 -4 l150 1 55 57
c31 31 56 61 56 66 0 5 11 14 25 20 50 23 22 30 -122 29 l-147 0 -83 -82z
m124 39 c-3 -3 -12 -4 -19 -1 -8 3 -5 6 6 6 11 1 17 -2 13 -5z m80 0 c-3 -3
-12 -4 -19 -1 -8 3 -5 6 6 6 11 1 17 -2 13 -5z m-47 -38 c0 -3 -4 -8 -10 -11
-5 -3 -10 -1 -10 4 0 6 5 11 10 11 6 0 10 -2 10 -4z m75 -6 c-3 -5 -11 -10
-16 -10 -6 0 -7 5 -4 10 3 6 11 10 16 10 6 0 7 -4 4 -10z m-195 -40 c0 -5 -8
-10 -17 -10 -15 0 -16 2 -3 10 19 12 20 12 20 0z m77 -6 c-3 -3 -12 -4 -19 -1
-8 3 -5 6 6 6 11 1 17 -2 13 -5z"/>
<path d="M4020 1902 c0 -14 6 -22 16 -22 14 0 15 3 3 18 -7 9 -15 19 -16 21
-2 2 -3 -5 -3 -17z"/>
<path d="M1250 1855 l-54 -55 -168 0 c-105 0 -168 -4 -168 -10 0 -6 122 -10
345 -10 223 0 345 4 345 10 0 6 -62 10 -165 10 -91 0 -165 3 -165 7 0 4 21 29
47 55 26 26 45 48 42 48 -2 0 -29 -25 -59 -55z"/>
<path d="M4048 1863 c-7 -35 -9 -88 -14 -293 -4 -157 -10 -237 -18 -242 -6 -4
3 -6 19 -4 l30 3 0 204 c-1 246 -7 377 -17 332z m11 -335 c0 -112 -2 -198 -4
-193 -8 23 -11 395 -4 395 5 0 9 -91 8 -202z"/>
<path d="M1070 1662 c0 -4 5 -13 10 -20 7 -9 7 -9 -2 -2 -19 15 -32 12 -18 -5
14 -17 20 -18 39 -6 12 8 12 12 -2 25 -17 18 -27 20 -27 8z"/>
<path d="M2284 1659 c-10 -17 23 -46 38 -31 8 8 8 15 -2 27 -15 18 -26 19 -36
4z m27 -16 c13 -16 12 -17 -3 -4 -17 13 -22 21 -14 21 2 0 10 -8 17 -17z"/>
<path d="M1010 1615 c-6 -8 -10 -22 -8 -32 4 -24 47 -24 62 0 9 15 7 21 -8 33
-25 18 -31 18 -46 -1z m30 -25 c0 -5 -5 -10 -11 -10 -5 0 -7 5 -4 10 3 6 8 10
11 10 2 0 4 -4 4 -10z"/>
<path d="M2231 1616 c-19 -23 -4 -56 25 -56 28 0 42 25 27 49 -14 22 -37 25
-52 7z"/>
<path d="M1575 1544 c-26 -27 -15 -49 25 -49 24 0 36 5 38 16 3 17 -22 49 -38
49 -5 0 -16 -7 -25 -16z m35 -14 c0 -5 -4 -10 -10 -10 -5 0 -10 5 -10 10 0 6
5 10 10 10 6 0 10 -4 10 -10z"/>
<path d="M1994 1543 c9 -28 -11 -40 -29 -17 -14 18 -14 18 -15 -3 0 -20 5 -23
35 -23 28 0 35 4 35 19 0 10 -7 25 -16 32 -15 12 -16 11 -10 -8z"/>
<path d="M2802 1548 c-7 -7 -12 -22 -12 -35 0 -20 5 -23 35 -23 30 0 35 3 35
23 0 24 -17 47 -35 47 -6 0 -16 -5 -23 -12z"/>
<path d="M3218 1535 c5 -27 -15 -35 -24 -10 -4 8 -10 13 -15 10 -17 -11 4 -35
32 -35 22 0 29 5 29 19 0 10 -6 24 -14 30 -11 9 -12 6 -8 -14z"/>
<path d="M8123 1452 c-13 -2 -23 -6 -23 -10 1 -4 18 -38 39 -76 l39 -68 17 58
c9 33 18 66 21 75 4 13 -4 18 -33 20 -21 2 -48 3 -60 1z"/>
<path d="M7012 1420 c-2 -23 7 -40 38 -73 39 -41 40 -41 40 -16 0 14 -3 47 -6
73 -6 44 -8 46 -38 46 -28 0 -32 -3 -34 -30z"/>
<path d="M7110 1428 c0 -13 3 -47 6 -75 l7 -53 53 72 c30 39 54 73 54 75 0 2
-27 3 -60 3 -56 0 -60 -2 -60 -22z"/>
<path d="M7360 1380 c41 -38 76 -68 77 -66 1 1 -5 32 -13 69 l-16 67 -61 0
-62 -1 75 -69z"/>
<path d="M7444 1418 c13 -68 27 -108 35 -104 8 6 81 123 81 132 0 2 -28 4 -61
4 l-61 0 6 -32z"/>
<path d="M7626 1441 c9 -9 112 -93 146 -119 13 -10 11 2 -10 58 l-27 70 -59 0
c-36 0 -56 -4 -50 -9z"/>
<path d="M7770 1443 c0 -4 12 -39 27 -77 l27 -69 33 69 c17 38 32 72 32 77 1
4 -26 7 -59 7 -33 0 -60 -3 -60 -7z"/>
<path d="M7950 1447 c0 -4 143 -107 169 -122 8 -5 -1 20 -20 56 l-36 64 -56 3
c-32 2 -57 1 -57 -1z"/>
<path d="M1220 1150 c0 -20 7 -20 3379 -20 2889 0 3380 2 3384 14 3 8 3 17 0
20 -4 3 -1527 6 -3385 6 -3371 0 -3378 0 -3378 -20z"/>
</g>
</svg>
